<svg xmlns="http://www.w3.org/2000/svg" version="1.1" xmlns:xlink="http://www.w3.org/1999/xlink" xmlns:svgjs="http://svgjs.dev/svgjs" width="128" height="128" viewBox="0 0 128 128"><g transform="matrix(0.8046875,0,0,0.8046875,12.664731886141467,7.490171370967744)"><svg viewBox="0 0 141 155" data-background-color="#ffffff" preserveAspectRatio="xMidYMid meet" height="140" width="128" xmlns="http://www.w3.org/2000/svg" xmlns:xlink="http://www.w3.org/1999/xlink"><g id="tight-bounds" transform="matrix(1,0,0,1,-0.22550675675677212,0.25)"><svg viewBox="0 0 141.45101351351352 154.5" height="154.5" width="141.45101351351352"><g><svg viewBox="0 0 141.45101351351352 154.5" height="154.5" width="141.45101351351352"><g><svg viewBox="0 0 141.45101351351352 154.5" height="154.5" width="141.45101351351352"><g id="textblocktransform"><svg viewBox="0 0 141.45101351351352 154.5" height="154.5" width="141.45101351351352" id="textblock"><g><svg viewBox="0 0 141.45101351351352 154.5" height="154.5" width="141.45101351351352"><g transform="matrix(1,0,0,1,0,0)"><svg width="141.45101351351352" viewBox="0.78 -28.91 26.47 28.91" height="154.5" data-palette-color="#003368"><path d="M26.12-28.91L26.12-28.91 27.25-20.75 24.76-20.51 22.8-26.03Q22.31-26.12 21.8-26.15 21.29-26.17 20.85-26.17L20.85-26.17 19.09-26.17Q18.65-26.17 17.9-26.17 17.14-26.17 16.6-26.07L16.6-26.07Q16.6-25.73 16.58-24.29 16.55-22.85 16.53-20.87 16.5-18.9 16.5-16.99L16.5-16.99 16.5-11.08Q16.5-8.11 16.55-5.86 16.6-3.61 16.65-2.73L16.65-2.73 20.8-2.15 20.7 0 7.37 0 7.23-2.15 11.38-2.73Q11.43-3.61 11.47-5.86 11.52-8.11 11.52-11.08L11.52-11.08 11.52-16.99Q11.52-18.9 11.5-20.87 11.47-22.85 11.47-24.29 11.47-25.73 11.43-26.07L11.43-26.07Q10.94-26.17 10.18-26.17 9.42-26.17 8.94-26.17L8.94-26.17 7.13-26.17Q6.64-26.17 6.15-26.15 5.66-26.12 5.18-26.03L5.18-26.03 3.22-20.41 0.78-20.7 1.81-28.91Q2.34-28.86 3.03-28.81 3.71-28.76 4.47-28.74 5.22-28.71 5.93-28.69 6.64-28.66 7.23-28.66L7.23-28.66 20.7-28.66Q21.29-28.66 22-28.69 22.71-28.71 23.44-28.74 24.17-28.76 24.85-28.81 25.54-28.86 26.12-28.91Z" opacity="1" transform="matrix(1,0,0,1,0,0)" fill="#003368" class="wordmark-text-0" data-fill-palette-color="primary" id="text-0"></path></svg></g></svg></g></svg></g></svg></g><g></g></svg></g><defs></defs></svg><rect width="141.45101351351352" height="154.5" fill="none" stroke="none" visibility="hidden"></rect></g></svg></g></svg>